PathFileType	4	(X/Y/Z)	static_1_OpenSim.trc.	Data\Walking\Mocap\Sub011\Generated_files\Files_W_HJCs																																																																																																																																																															
DataRate	CameraRate	NumFrames	NumMarkers	Units	OrigDataRate	OrigDataStartFrame	OrigNumFrames																																																																																																																																																												
100	100	4	54	mm	100	246	491																																																																																																																																																												
Frame#	Time	R.ASIS			R.PSIS			S2			L.PSIS			L.ASIS			R.TH1			R.TH2			R.TH3			R.Knee			R.SH1			R.SH2			R.SH3			R.SH4			R.Ankle			R.MAnkle			R.Heel			R.LatHeel			R.PT			R.MT5			R.Toe			R.MT1			R.ProxMet1			R.ST			R.MedHeel			L.TH1			L.TH2			L.TH3			L.TH4			L.Knee			L.SH1			L.SH2			L.SH3			L.Ankle			L.MAnkle			L.Heel			L.LatHeel			L.PT			L.MT5			L.Toe			L.MT1			L.ProxMet1			L.ST			L.MedHeel			T.Med			T.Lat			T.Bot			R.Acr			L.Acr			C7			Clav			R.MKnee			L.MKnee			R_HJC			L_HJC		
		X1	Y1	Z1	X2	Y2	Z2	X3	Y3	Z3	X4	Y4	Z4	X5	Y5	Z5	X6	Y6	Z6	X7	Y7	Z7	X8	Y8	Z8	X9	Y9	Z9	X10	Y10	Z10	X11	Y11	Z11	X12	Y12	Z12	X13	Y13	Z13	X14	Y14	Z14	X15	Y15	Z15	X16	Y16	Z16	X17	Y17	Z17	X18	Y18	Z18	X19	Y19	Z19	X20	Y20	Z20	X21	Y21	Z21	X22	Y22	Z22	X23	Y23	Z23	X24	Y24	Z24	X25	Y25	Z25	X26	Y26	Z26	X27	Y27	Z27	X28	Y28	Z28	X29	Y29	Z29	X30	Y30	Z30	X31	Y31	Z31	X32	Y32	Z32	X33	Y33	Z33	X34	Y34	Z34	X35	Y35	Z35	X36	Y36	Z36	X37	Y37	Z37	X38	Y38	Z38	X39	Y39	Z39	X40	Y40	Z40	X41	Y41	Z41	X42	Y42	Z42	X43	Y43	Z43	X44	Y44	Z44	X45	Y45	Z45	X46	Y46	Z46	X47	Y47	Z47	X48	Y48	Z48	X49	Y49	Z49	X50	Y50	Z50	X51	Y51	Z51	X52	Y52	Z52	X53	Y53	Z53	X54	Y54	Z54
																																																																																																																																																																			
246	2.45	1227.093	995.861	-429.027	1052.831	1008.488	-497.061	1052.752	990.659	-555.049	1059.221	1005.997	-605.971	1246.991	985.091	-656.849	1256.806	701.229	-414.871	1200.37	701.007	-354.424	1183.371	593.427	-373.32	1148.605	466.159	-387.635	1143.325	354.134	-380.045	1136.856	241.627	-386.588	1060.662	360.833	-377.964	1056.911	246.862	-376.333	1090.779	91.268	-406.972	1104.598	98.776	-480.928	1022.693	65.671	-450.685	1050.99	42.21	-407.035	1122.077	41.62	-389.942	1212.187	35.388	-378.78	1283.178	45.061	-432.276	1230.093	44.668	-474.498	1190.539	63.972	-472.607	1130.679	41.998	-488.213	1059.417	38.611	-485.714	1235.447	722.203	-723.783	1215.918	616.642	-704.737	1154.864	726.63	-755.416	1138.095	620.97	-727.304	1149.692	449.465	-697.44	1163.892	361.781	-695.325	1088.677	372.914	-727.682	1074.288	264.232	-724.113	1097.297	79.321	-690.534	1113.573	101.058	-612.616	1028.479	61.524	-649.649	1055.36	35.143	-691.579	1123.549	37.703	-704.889	1215.578	29.72	-715.964	1290.932	42.109	-657.819	1233.222	42.144	-618.544	1185.695	66.796	-618.836	1137.785	38.281	-606.404	1078.367	40.395	-610.771	1006.017	260.637	-489.645	1003.058	263.445	-452.496	1020.255	230.675	-461.843	1116.049	1393.027	-400.461	1150.02	1385.135	-734.759	1080.081	1422.003	-569.609	1210.38	1346.636	-558.136	1136.367	463.368	-505.556	1134.475	459.047	-594.529	1180.777	854.478	-449.728	1190.384	851.612	-637.979
247	2.46	1227.158	995.842	-428.994	1052.857	1008.499	-497.113	1052.821	990.637	-554.997	1059.267	1005.953	-605.978	1247.088	985.055	-656.815	1256.82	701.242	-414.838	1200.408	701.008	-354.405	1183.367	593.428	-373.216	1148.619	466.163	-387.611	1143.319	354.135	-380.031	1136.867	241.62	-386.575	1060.648	360.828	-377.961	1056.9	246.866	-376.336	1090.764	91.264	-406.951	1104.579	98.807	-480.959	1022.658	65.651	-450.71	1050.974	42.271	-406.996	1122.073	41.653	-389.947	1212.175	35.383	-378.793	1283.133	45.031	-432.252	1230.064	44.661	-474.493	1190.559	63.95	-472.85	1130.669	42.01	-488.209	1059.391	38.617	-485.681	1235.517	722.184	-723.743	1215.932	616.598	-704.694	1154.913	726.625	-755.4	1138.112	620.945	-727.294	1149.681	449.459	-697.452	1163.883	361.812	-695.282	1088.646	372.922	-727.713	1074.247	264.219	-724.126	1097.302	79.382	-690.586	1113.573	101.054	-612.602	1028.473	61.506	-649.652	1055.371	35.113	-691.546	1123.548	37.714	-704.885	1215.559	29.7	-715.975	1290.933	42.105	-657.814	1233.221	42.132	-618.548	1185.696	66.812	-618.851	1137.754	38.261	-606.346	1078.419	40.401	-610.804	1005.987	260.648	-489.638	1003.07	263.419	-452.529	1020.206	230.628	-461.847	1116.033	1393.011	-400.459	1150.161	1385.093	-734.713	1080.105	1421.985	-569.647	1210.434	1346.623	-558.117	1136.304	463.338	-505.543	1134.482	459.047	-594.52	1180.817	854.472	-449.682	1190.454	851.572	-637.931
248	2.47	1227.233	995.855	-428.959	1052.913	1008.487	-497.054	1052.892	990.656	-555.023	1059.339	1005.956	-605.967	1247.183	985.05	-656.771	1256.862	701.237	-414.806	1200.468	700.997	-354.35	1183.384	593.416	-373.281	1148.616	466.171	-387.607	1143.32	354.131	-380.013	1136.863	241.643	-386.58	1060.668	360.775	-377.93	1056.835	246.938	-376.211	1090.792	91.212	-407.017	1104.601	98.76	-480.953	1022.632	65.689	-450.702	1051.007	42.238	-407.045	1122.094	41.671	-389.966	1212.188	35.414	-378.79	1283.154	45.02	-432.288	1230.078	44.683	-474.434	1190.554	64.026	-472.587	1130.667	41.991	-488.211	1059.382	38.642	-485.646	1235.651	722.183	-723.686	1215.986	616.591	-704.641	1155.008	726.587	-755.402	1138.18	620.988	-727.245	1149.71	449.454	-697.44	1163.892	361.777	-695.289	1088.664	372.956	-727.653	1074.283	264.246	-724.087	1097.255	79.351	-690.558	1113.582	101.046	-612.611	1028.46	61.534	-649.679	1055.354	35.158	-691.497	1123.531	37.724	-704.874	1215.556	29.693	-715.983	1290.939	42.128	-657.789	1233.224	42.139	-618.536	1185.701	66.801	-618.878	1137.763	38.266	-606.407	1078.409	40.41	-610.789	1006.007	260.656	-489.623	1003.075	263.428	-452.495	1020.22	230.631	-461.839	1116.043	1392.998	-400.473	1150.206	1385.054	-734.787	1080.182	1422.023	-569.636	1210.51	1346.6	-558.083	1136.282	463.356	-505.523	1134.514	459.024	-594.502	1180.88	854.477	-449.648	1190.539	851.574	-637.897
249	2.48	1227.294	995.828	-428.932	1052.979	1008.51	-497.084	1052.99	990.651	-554.979	1059.403	1005.939	-605.951	1247.296	985.064	-656.711	1256.879	701.199	-414.767	1200.513	700.995	-354.347	1183.409	593.406	-373.25	1148.691	466.107	-387.417	1143.342	354.097	-380.007	1136.876	241.631	-386.558	1060.671	360.822	-377.857	1056.846	246.921	-376.181	1090.77	91.238	-407.006	1104.629	98.786	-480.984	1022.667	65.682	-450.66	1050.957	42.226	-406.996	1122.079	41.634	-389.956	1212.202	35.432	-378.764	1283.148	45.019	-432.209	1230.114	44.672	-474.472	1190.576	64.052	-472.58	1130.679	41.972	-488.21	1059.358	38.697	-485.596	1235.735	722.172	-723.652	1216.031	616.587	-704.597	1155.12	726.601	-755.316	1138.209	620.989	-727.243	1149.711	449.448	-697.391	1163.922	361.778	-695.273	1088.693	372.973	-727.673	1074.328	264.245	-724.076	1097.332	79.376	-690.537	1113.619	101.054	-612.612	1028.478	61.539	-649.623	1055.381	35.147	-691.534	1123.55	37.691	-704.891	1215.575	29.73	-715.973	1290.932	42.145	-657.782	1233.23	42.156	-618.522	1185.749	66.846	-618.823	1137.774	38.248	-606.407	1078.42	40.39	-610.758	1006.048	260.666	-489.578	1003.074	263.447	-452.466	1020.229	230.632	-461.843	1116.048	1392.985	-400.503	1150.425	1385.04	-734.726	1080.259	1421.96	-569.755	1210.555	1346.567	-558.065	1136.367	463.363	-505.561	1134.504	459.019	-594.504	1180.939	854.468	-449.622	1190.634	851.575	-637.869
